Coordinates
version=1
nRows=23
nColumns=20
inDegrees=yes

Units are S.I. units (second, meters, Newtons, ...)
Angles are in degrees.

endheader
time	pelvis_tilt	pelvis_list	pelvis_rotation	pelvis_tx	pelvis_ty	pelvis_tz	hip_flexion_r	hip_adduction_r	hip_rotation_r	knee_angle_r	ankle_angle_r	hip_flexion_l	hip_adduction_l	hip_rotation_l	knee_angle_l	ankle_angle_l	lumbar_extension	lumbar_bending	lumbar_rotation
      1.88300000	      4.59802117	      1.85147265	      1.95854410	      0.58363492	      1.00347376	     -0.00252213	     20.55330939	     -3.18668678	     -3.86129543	     -7.17561636	     -0.00150400	    -22.62117172	      3.54731255	      5.38692668	     -7.81518631	     14.24538082	    -15.11968875	     -1.75910582	     -8.86035419
      1.90000000	      4.38599075	      1.67136399	      2.25157891	      0.58693797	      1.00298160	     -0.00051308	     21.21868264	     -2.91128476	     -3.99290595	    -10.26913932	     -1.06574701	    -22.55389077	      3.09916629	      5.71853668	    -10.08737175	     13.99284485	    -14.57260484	     -1.22289806	     -8.86913746
      1.91700000	      4.51690629	      1.51249840	      2.59052602	      0.59029023	      1.00369804	      0.00137000	     21.54174774	     -2.72824634	     -4.14988638	    -13.59798402	     -1.70374833	    -22.48440680	      2.67772224	      6.12439455	    -12.96633139	     13.40196917	    -14.46053926	     -0.60732041	     -9.10275427
      1.93300000	      4.63180562	      1.38834490	      2.73917728	      0.59461204	      1.00490435	      0.00325981	     21.71011458	     -2.55297004	     -3.99434912	    -16.78941260	     -1.84149809	    -21.98982262	      2.42646654	      6.32236060	    -16.61489296	     12.41279269	    -14.16367380	     -0.10630376	     -8.90606254
      1.95000000	      4.98927646	      1.14604329	      3.11079864	      0.59852201	      1.00686751	      0.00507377	     21.29928793	     -2.30511228	     -4.03498418	    -19.44053050	     -1.71735312	    -20.97708438	      2.01633366	      6.54276462	    -21.53455724	     11.07620279	    -14.25546804	      0.58141083	     -9.07002555
      1.96700000	      5.08477081	      1.26941013	      3.44659851	      0.60123496	      1.00847073	      0.00701995	     21.00013071	     -2.42184159	     -4.02891774	    -21.72658029	     -1.30598456	    -18.81296036	      2.03851766	      6.52528931	    -27.74164838	      8.99072305	    -14.15885679	      0.81138947	     -9.11208859
      1.98300000	      5.19672105	      1.07094655	      3.63899173	      0.60388649	      1.01009192	      0.00936473	     20.38283489	     -2.13097020	     -4.14360418	    -23.42389983	     -0.62412332	    -16.10699604	      1.68249354	      5.81135885	    -34.53586345	      5.84959184	    -14.14063382	      1.24907426	     -9.07760160
      2.00000000	      5.21111561	      0.85986925	      3.65104981	      0.60572100	      1.01151897	      0.01193508	     19.75135449	     -1.73786048	     -4.19969332	    -24.81883297	      0.40245397	    -12.87624839	      1.19356041	      4.57541262	    -41.41905617	      1.62158824	    -13.95830720	      1.63786906	     -8.75858712
      2.01700000	      5.09743248	      0.27377227	      3.48416885	      0.60649572	      1.01277868	      0.01514169	     18.98705668	     -0.85705283	     -4.30256353	    -25.48548200	      1.44217831	     -9.22469979	      0.07560455	      2.87525699	    -48.05601634	     -2.99267281	    -13.77513803	      2.36988347	     -7.98209110
      2.03300000	      5.04448529	     -0.43426262	      3.63194872	      0.60754470	      1.01474102	      0.01838990	     17.79664064	      0.13126842	     -4.72053996	    -25.53744664	      2.56451852	     -5.75197232	     -1.47742025	      1.50272391	    -53.79194544	     -7.08631856	    -13.48989382	      3.08530119	     -7.55160317
      2.05000000	      5.09501725	     -1.07318585	      3.44304502	      0.60750266	      1.01724566	      0.02185750	     16.36190528	      1.16048877	     -4.80959705	    -25.12369394	      3.51384554	     -2.53930083	     -2.91676699	      0.19153410	    -58.72227666	     -9.46769369	    -13.54714758	      3.67778351	     -6.68198199
      2.06700000	      5.35448100	     -1.56460435	      3.39503872	      0.60736847	      1.02041555	      0.02520010	     14.61573491	      2.03604680	     -4.86047569	    -24.56483567	      4.44623043	      0.34685282	     -4.13121042	     -0.57582633	    -62.96840632	     -9.73927001	    -13.76189049	      3.97889146	     -6.05652512
      2.08300000	      5.41272981	     -1.74160852	      3.10837693	      0.60671888	      1.02382462	      0.02800653	     12.92508029	      2.55644910	     -4.60195809	    -23.63126981	      5.13689700	      3.21754481	     -4.77910837	     -1.27627707	    -66.30429042	     -8.29009134	    -13.92640233	      4.00378273	     -5.08154896
      2.10000000	      5.52711446	     -1.83813369	      2.86522389	      0.60650459	      1.02758439	      0.03076670	     10.98001454	      2.97888319	     -4.35175539	    -22.37495861	      5.65665186	      5.81774432	     -5.13924575	     -1.61156816	    -68.69275411	     -6.05004337	    -14.02067689	      3.84093367	     -4.31627027
      2.11700000	      5.80838592	     -1.80206558	      2.37936705	      0.60567597	      1.03163780	      0.03378914	      8.68236356	      3.29333012	     -3.81328799	    -20.65663023	      5.88608232	      8.05221067	     -5.31621680	     -2.12977633	    -70.10753074	     -3.99272744	    -14.26560919	      3.50658530	     -3.25218567
      2.13300000	      5.87142034	     -1.71683704	      1.95494769	      0.60462132	      1.03496846	      0.03640813	      6.68732332	      3.47561967	     -3.31475673	    -19.06066233	      6.12945384	     10.37405936	     -5.18578151	     -2.27645067	    -70.67294033	     -2.35888628	    -14.42425903	      3.09580182	     -2.39977821
      2.15000000	      5.87030462	     -1.63096558	      1.49297174	      0.60356794	      1.03777066	      0.03867379	      4.76712272	      3.60798449	     -2.75377897	    -17.45424192	      6.34787271	     12.55163558	     -4.95488154	     -2.37643656	    -70.38924963	     -1.21293871	    -14.35246794	      2.73221594	     -1.71102333
      2.16700000	      5.79961916	     -1.52734566	      0.86910739	      0.60165732	      1.03988492	      0.04095720	      3.06432107	      3.68095593	     -2.03705008	    -16.00239634	      6.52261400	     14.63619044	     -4.73282586	     -2.66150811	    -69.35770636	     -0.40928088	    -14.37383051	      2.35687985	     -0.76543708
      2.18300000	      5.93458561	     -1.32308400	      0.46032594	      0.60020972	      1.04193519	      0.04257036	      1.16253594	      3.58257760	     -1.54650132	    -14.67211998	      6.77545524	     16.21505113	     -4.30954851	     -2.75610996	    -67.45279504	      0.22415663	    -14.58339237	      1.91821390	     -0.24730155
      2.20000000	      5.71387102	     -1.35939135	     -0.01990568	      0.59787157	      1.04247409	      0.04428937	     -0.13132162	      3.72130058	     -1.01680208	    -13.65784849	      7.13431385	     18.10285494	     -4.22322394	     -2.89337274	    -65.05781713	      0.78077166	    -14.49212028	      1.73784404	      0.35347128
      2.21700000	      5.81841088	     -1.24490365	     -0.44030114	      0.59646400	      1.04330102	      0.04571784	     -1.94608104	      3.66546437	     -0.52798927	    -12.42759803	      7.51058821	     19.17746662	     -4.06704064	     -3.18977956	    -61.66752229	      1.15843692	    -14.61165720	      1.35520208	      0.83928480
      2.23300000	      5.73821986	     -1.30081453	     -0.71463026	      0.59425159	      1.04312787	      0.04700856	     -3.44266784	      3.78484555	     -0.17003642	    -11.35691690	      7.92746014	     20.27812784	     -4.17236582	     -3.47004634	    -57.64075694	      1.33284047	    -14.69852655	      1.17559159	      1.19503539
      2.25000000	      5.63510975	     -1.58972666	     -0.85095744	      0.59257427	      1.04230898	      0.04815284	     -4.93745872	      4.15411753	      0.09336191	    -10.33858852	      8.38593449	     21.08222521	     -4.58191879	     -3.78007396	    -52.94530014	      1.37629195	    -14.65115459	      1.31472626	      1.48399129
